<svg width="462.11998291015624px" height="120.839990234375px" xmlns="http://www.w3.org/2000/svg" viewBox="18.94000854492188 14.580004882812503 462.11998291015624 120.839990234375" style="background: none;" preserveAspectRatio="xMidYMid"><defs><filter id="editing-extrude-glow"><feFlood flood-color="#333333" result="flood-1"></feFlood><feMorphology operator="erode" radius="1" in="SourceAlpha" result="erode"></feMorphology><feComposite operator="in" in="flood-1" in2="erode" result="comp1"></feComposite><feConvolveMatrix order="3,3" divisor="1" in="comp1" result="convolve" kernelMatrix="0 0 0 1 1 1 0 0 0"></feConvolveMatrix><feOffset dx="-3" dy="0" in="convolve" result="extrude"></feOffset><feComposite operator="in" in="flood-1" in2="extrude" result="comp-extrude"></feComposite><feFlood flood-color="#000000" result="flood-2"></feFlood><feComposite operator="in" in="flood-2" in2="SourceAlpha" result="comp2"></feComposite><feMorphology operator="dilate" radius="1" in="comp2" result="dilate"></feMorphology><feOffset dx="-4.5" dy="0" in="dilate" result="offset"></feOffset><feGaussianBlur in="offset" stdDeviation="5.8" result="blur"></feGaussianBlur><feComponentTransfer in="blur" result="shadow"><feFuncA type="linear" slope="0.8" intercept="-0.2"></feFuncA></feComponentTransfer><feMerge><feMergeNode in="shadow"></feMergeNode><feMergeNode in="comp-extrude"></feMergeNode><feMergeNode in="SourceGraphic"></feMergeNode></feMerge></filter></defs><g filter="url(#editing-extrude-glow)"><g transform="translate(87.39500141143799, 96.40500068664551)"><path d="M40.86-7.24L40.86 0L7.85 0L7.85 0Q7.07 0 6.40-0.28L6.40-0.28L6.40-0.28Q5.73-0.56 5.25-1.04L5.25-1.04L5.25-1.04Q4.76-1.53 4.48-2.20L4.48-2.20L4.48-2.20Q4.20-2.87 4.20-3.65L4.20-3.65L4.20-39.91L11.44-39.91L11.44-7.24L40.86-7.24ZM77.73-20.12L77.73-20.12L77.73-20.12Q77.73-18.62 77.21-16.88L77.21-16.88L77.21-16.88Q76.68-15.14 75.49-13.65L75.49-13.65L75.49-13.65Q74.31-12.16 72.41-11.16L72.41-11.16L72.41-11.16Q70.50-10.16 67.77-10.16L67.77-10.16L54.72-10.16L54.72-17.03L67.77-17.03L67.77-17.03Q69.25-17.03 70.05-17.94L70.05-17.94L70.05-17.94Q70.86-18.84 70.86-20.18L70.86-20.18L70.86-20.18Q70.86-21.60 69.96-22.40L69.96-22.40L69.96-22.40Q69.05-23.21 67.77-23.21L67.77-23.21L54.72-23.21L54.72-23.21Q53.24-23.21 52.44-22.31L52.44-22.31L52.44-22.31Q51.63-21.40 51.63-20.07L51.63-20.07L51.63-9.96L51.63-9.96Q51.63-8.52 52.53-7.71L52.53-7.71L52.53-7.71Q53.44-6.90 54.77-6.90L54.77-6.90L67.77-6.90L67.77 0L54.72 0L54.72 0Q53.21 0 51.48-0.53L51.48-0.53L51.48-0.53Q49.74-1.06 48.25-2.24L48.25-2.24L48.25-2.24Q46.76-3.42 45.76-5.33L45.76-5.33L45.76-5.33Q44.75-7.24 44.75-9.96L44.75-9.96L44.75-20.12L44.75-20.12Q44.75-21.63 45.28-23.36L45.28-23.36L45.28-23.36Q45.81-25.10 46.99-26.59L46.99-26.59L46.99-26.59Q48.18-28.08 50.08-29.08L50.08-29.08L50.08-29.08Q51.99-30.09 54.72-30.09L54.72-30.09L67.77-30.09L67.77-30.09Q69.27-30.09 71.01-29.56L71.01-29.56L71.01-29.56Q72.75-29.03 74.24-27.85L74.24-27.85L74.24-27.85Q75.73-26.66 76.73-24.76L76.73-24.76L76.73-24.76Q77.73-22.85 77.73-20.12ZM114.97-20.12L114.97-20.12L114.97-20.12Q114.97-18.62 114.45-16.88L114.45-16.88L114.45-16.88Q113.92-15.14 112.73-13.65L112.73-13.65L112.73-13.65Q111.55-12.16 109.64-11.16L109.64-11.16L109.64-11.16Q107.74-10.16 105.01-10.16L105.01-10.16L91.96-10.16L91.96-17.03L105.01-17.03L105.01-17.03Q106.49-17.03 107.29-17.94L107.29-17.94L107.29-17.94Q108.10-18.84 108.10-20.18L108.10-20.18L108.10-20.18Q108.10-21.60 107.20-22.40L107.20-22.40L107.20-22.40Q106.29-23.21 105.01-23.21L105.01-23.21L91.96-23.21L91.96-23.21Q90.48-23.21 89.67-22.31L89.67-22.31L89.67-22.31Q88.87-21.40 88.87-20.07L88.87-20.07L88.87-9.96L88.87-9.96Q88.87-8.52 89.77-7.71L89.77-7.71L89.77-7.71Q90.68-6.90 92.01-6.90L92.01-6.90L105.01-6.90L105.01 0L91.96 0L91.96 0Q90.45 0 88.71-0.53L88.71-0.53L88.71-0.53Q86.98-1.06 85.49-2.24L85.49-2.24L85.49-2.24Q84.00-3.42 83.00-5.33L83.00-5.33L83.00-5.33Q81.99-7.24 81.99-9.96L81.99-9.96L81.99-20.12L81.99-20.12Q81.99-21.63 82.52-23.36L82.52-23.36L82.52-23.36Q83.05-25.10 84.23-26.59L84.23-26.59L84.23-26.59Q85.42-28.08 87.32-29.08L87.32-29.08L87.32-29.08Q89.23-30.09 91.96-30.09L91.96-30.09L105.01-30.09L105.01-30.09Q106.51-30.09 108.25-29.56L108.25-29.56L108.25-29.56Q109.99-29.03 111.48-27.85L111.48-27.85L111.48-27.85Q112.97-26.66 113.97-24.76L113.97-24.76L113.97-24.76Q114.97-22.85 114.97-20.12ZM174.65-39.91L174.65-32.67L158.70-32.67L158.70 0L151.46 0L151.46-32.67L135.49-32.67L135.49-39.91L174.65-39.91ZM208.35-20.12L208.35-20.12L208.35-20.12Q208.35-18.62 207.82-16.88L207.82-16.88L207.82-16.88Q207.29-15.14 206.11-13.65L206.11-13.65L206.11-13.65Q204.93-12.16 203.02-11.16L203.02-11.16L203.02-11.16Q201.11-10.16 198.39-10.16L198.39-10.16L185.33-10.16L185.33-17.03L198.39-17.03L198.39-17.03Q199.86-17.03 200.67-17.94L200.67-17.94L200.67-17.94Q201.48-18.84 201.48-20.18L201.48-20.18L201.48-20.18Q201.48-21.60 200.57-22.40L200.57-22.40L200.57-22.40Q199.67-23.21 198.39-23.21L198.39-23.21L185.33-23.21L185.33-23.21Q183.86-23.21 183.05-22.31L183.05-22.31L183.05-22.31Q182.24-21.40 182.24-20.07L182.24-20.07L182.24-9.96L182.24-9.96Q182.24-8.52 183.15-7.71L183.15-7.71L183.15-7.71Q184.05-6.90 185.39-6.90L185.39-6.90L198.39-6.90L198.39 0L185.33 0L185.33 0Q183.83 0 182.09-0.53L182.09-0.53L182.09-0.53Q180.35-1.06 178.86-2.24L178.86-2.24L178.86-2.24Q177.37-3.42 176.37-5.33L176.37-5.33L176.37-5.33Q175.37-7.24 175.37-9.96L175.37-9.96L175.37-20.12L175.37-20.12Q175.37-21.63 175.90-23.36L175.90-23.36L175.90-23.36Q176.43-25.10 177.61-26.59L177.61-26.59L177.61-26.59Q178.79-28.08 180.70-29.08L180.70-29.08L180.70-29.08Q182.61-30.09 185.33-30.09L185.33-30.09L198.39-30.09L198.39-30.09Q199.89-30.09 201.63-29.56L201.63-29.56L201.63-29.56Q203.37-29.03 204.86-27.85L204.86-27.85L204.86-27.85Q206.35-26.66 207.35-24.76L207.35-24.76L207.35-24.76Q208.35-22.85 208.35-20.12ZM246.40-19.96L246.40-10.16L246.40-10.16Q246.40-9.13 246.16-7.99L246.16-7.99L246.16-7.99Q245.92-6.85 245.42-5.72L245.42-5.72L245.42-5.72Q244.92-4.59 244.13-3.56L244.13-3.56L244.13-3.56Q243.34-2.53 242.21-1.74L242.21-1.74L242.21-1.74Q241.08-0.95 239.61-0.47L239.61-0.47L239.61-0.47Q238.13 0 236.27 0L236.27 0L223.21 0L223.21 0Q222.18 0 221.04-0.24L221.04-0.24L221.04-0.24Q219.90-0.47 218.77-0.97L218.77-0.97L218.77-0.97Q217.65-1.48 216.62-2.27L216.62-2.27L216.62-2.27Q215.59-3.06 214.79-4.19L214.79-4.19L214.79-4.19Q214.00-5.32 213.53-6.80L213.53-6.80L213.53-6.80Q213.05-8.29 213.05-10.16L213.05-10.16L213.05-42.81L220.29-42.81L220.29-10.16L220.29-10.16Q220.29-8.82 221.13-8.03L221.13-8.03L221.13-8.03Q221.96-7.24 223.21-7.24L223.21-7.24L236.27-7.24L236.27-7.24Q237.63-7.24 238.40-8.04L238.40-8.04L238.40-8.04Q239.16-8.85 239.16-10.16L239.16-10.16L239.16-19.96L239.16-19.96Q239.16-21.32 238.35-22.08L238.35-22.08L238.35-22.08Q237.55-22.85 236.27-22.85L236.27-22.85L223.21-22.85L223.21-30.09L236.27-30.09L236.27-30.09Q237.30-30.09 238.44-29.85L238.44-29.85L238.44-29.85Q239.58-29.61 240.71-29.11L240.71-29.11L240.71-29.11Q241.83-28.61 242.86-27.82L242.86-27.82L242.86-27.82Q243.89-27.02 244.67-25.90L244.67-25.90L244.67-25.90Q245.45-24.77 245.92-23.30L245.92-23.30L245.92-23.30Q246.40-21.82 246.40-19.96L246.40-19.96ZM285.75-19.96L285.75-10.16L285.75-10.16Q285.75-9.13 285.51-7.99L285.51-7.99L285.51-7.99Q285.28-6.85 284.78-5.72L284.78-5.72L284.78-5.72Q284.28-4.59 283.48-3.56L283.48-3.56L283.48-3.56Q282.69-2.53 281.56-1.74L281.56-1.74L281.56-1.74Q280.44-0.95 278.96-0.47L278.96-0.47L278.96-0.47Q277.49 0 275.62 0L275.62 0L262.57 0L262.57 0Q261.54 0 260.40-0.24L260.40-0.24L260.40-0.24Q259.26-0.47 258.13-0.97L258.13-0.97L258.13-0.97Q257.00-1.48 255.97-2.27L255.97-2.27L255.97-2.27Q254.94-3.06 254.15-4.19L254.15-4.19L254.15-4.19Q253.35-5.32 252.88-6.80L252.88-6.80L252.88-6.80Q252.41-8.29 252.41-10.16L252.41-10.16L252.41-42.81L259.65-42.81L259.65-10.16L259.65-10.16Q259.65-8.82 260.48-8.03L260.48-8.03L260.48-8.03Q261.31-7.24 262.57-7.24L262.57-7.24L275.62-7.24L275.62-7.24Q276.98-7.24 277.75-8.04L277.75-8.04L277.75-8.04Q278.52-8.85 278.52-10.16L278.52-10.16L278.52-19.96L278.52-19.96Q278.52-21.32 277.71-22.08L277.71-22.08L277.71-22.08Q276.90-22.85 275.62-22.85L275.62-22.85L262.57-22.85L262.57-30.09L275.62-30.09L275.62-30.09Q276.65-30.09 277.79-29.85L277.79-29.85L277.79-29.85Q278.93-29.61 280.06-29.11L280.06-29.11L280.06-29.11Q281.19-28.61 282.22-27.82L282.22-27.82L282.22-27.82Q283.25-27.02 284.03-25.90L284.03-25.90L284.03-25.90Q284.81-24.77 285.28-23.30L285.28-23.30L285.28-23.30Q285.75-21.82 285.75-19.96L285.75-19.96ZM321.01-10.16L321.01-10.16L321.01-10.16Q321.01-8.29 320.54-6.80L320.54-6.80L320.54-6.80Q320.07-5.32 319.29-4.19L319.29-4.19L319.29-4.19Q318.51-3.06 317.48-2.27L317.48-2.27L317.48-2.27Q316.45-1.48 315.32-0.97L315.32-0.97L315.32-0.97Q314.20-0.47 313.04-0.24L313.04-0.24L313.04-0.24Q311.89 0 310.86 0L310.86 0L291.26 0L291.26-7.24L310.80-7.24L310.80-7.24Q312.28-7.24 313.03-7.99L313.03-7.99L313.03-7.99Q313.78-8.74 313.78-10.16L313.78-10.16L313.78-10.16Q313.64-13.05 310.86-13.05L310.86-13.05L299.64-13.05L299.64-13.05Q297.25-13.05 295.58-13.89L295.58-13.89L295.58-13.89Q293.91-14.72 292.86-15.98L292.86-15.98L292.86-15.98Q291.82-17.23 291.36-18.68L291.36-18.68L291.36-18.68Q290.90-20.12 290.90-21.38L290.90-21.38L290.90-21.38Q290.90-23.80 291.76-25.45L291.76-25.45L291.76-25.45Q292.63-27.11 293.93-28.14L293.93-28.14L293.93-28.14Q295.24-29.17 296.77-29.63L296.77-29.63L296.77-29.63Q298.30-30.09 299.64-30.09L299.64-30.09L317.42-30.09L317.42-22.85L299.70-22.85L299.70-22.85Q299.14-22.85 298.82-22.72L298.82-22.72L298.82-22.72Q298.50-22.60 298.35-22.39L298.35-22.39L298.35-22.39Q298.19-22.18 298.16-21.95L298.16-21.95L298.16-21.95Q298.14-21.71 298.14-21.49L298.14-21.49L298.14-21.49Q298.16-21.04 298.30-20.79L298.30-20.79L298.30-20.79Q298.44-20.54 298.65-20.43L298.65-20.43L298.65-20.43Q298.86-20.32 299.12-20.30L299.12-20.30L299.12-20.30Q299.39-20.29 299.64-20.29L299.64-20.29L310.86-20.29L310.86-20.29Q313.64-20.29 315.59-19.29L315.59-19.29L315.59-19.29Q317.54-18.29 318.73-16.77L318.73-16.77L318.73-16.77Q319.93-15.25 320.47-13.47L320.47-13.47L320.47-13.47Q321.01-11.69 321.01-10.16Z" fill="#9283ed"></path></g></g><style>text {
  font-size: 64px;
  font-family: Arial Black;
  dominant-baseline: central;
  text-anchor: middle;
}</style></svg>